<?xml version="1.0" encoding="UTF-8"?>
<svg width="24px" height="24px" viewBox="0 0 24 24" version="1.1" xmlns="http://www.w3.org/2000/svg" xmlns:xlink="http://www.w3.org/1999/xlink">
    <g id="Page-1" stroke="none" stroke-width="1" fill="none" fill-rule="evenodd">
        <g id="bear" fill-rule="nonzero">
            <path d="M18.8042426,16 L14,16 L17.8933391,20.7454084 C18.0377014,22.0081583 19.3490072,23 20.9400917,23 C22.6273008,23 24,21.884582 24,20.5135542 L24,20.2218836 C24,17.8939349 21.6692121,16 18.8042426,16 L18.8042426,16 Z" id="Path" fill="#D98263"></path>
            <path d="M0,20.2218836 L0,20.5135542 C0,21.884582 1.37269921,23 3.05990832,23 C4.65099282,23 5.96229857,22.0081583 6.1066609,20.7454084 L10,16 L5.19569895,16 C2.33078794,16 0,17.8939349 0,20.2218836 Z" id="Path" fill="#EB9B81"></path>
            <path d="M20,20.1076718 C20,18.4825762 19.5659728,16.8553478 18.7449082,15.4018991 L18.5178449,15 L12.1683411,15 L11,19.5 L12.1683411,24 L13.0993775,24 L20,22.4488275 L20,20.1076718 Z" id="Path" fill="#BD6446"></path>
            <path d="M5.51401399,15 L5.28206993,15.4018969 C4.44335664,16.8553863 4,18.482606 4,20.1076928 L4,22.4488358 L11.0862657,24 L12,24 L12,15 L5.51401399,15 Z" id="Path" fill="#C4715A"></path>
            <ellipse id="Oval" fill="#C4715A" transform="translate(4.952972, 3.308053) rotate(-89.770818) translate(-4.952972, -3.308053) " cx="4.95297248" cy="3.30805312" rx="3.21459903" ry="3.76147153"></ellipse>
            <ellipse id="Oval" fill="#FFDFCF" transform="translate(4.955541, 3.307191) rotate(-0.630228) translate(-4.955541, -3.307191) " cx="4.95554108" cy="3.30719073" rx="2.11016669" ry="1.80343444"></ellipse>
            <ellipse id="Oval" fill="#BD6446" transform="translate(19.049890, 3.306924) rotate(-89.083346) translate(-19.049890, -3.306924) " cx="19.0498899" cy="3.30692391" rx="3.21512739" ry="3.76185644"></ellipse>
            <ellipse id="Oval" fill="#FFCEBF" transform="translate(19.046476, 3.306375) rotate(-2.579148) translate(-19.046476, -3.306375) " cx="19.0464762" cy="3.30637534" rx="2.10958066" ry="1.80398353"></ellipse>
            <path d="M21.9942188,9.22857532 C21.9936464,4.69194487 17.3360357,1.00126986 11.6105705,1 L11,10.0308112 L11.6105705,17 L16.3829458,17 C19.4802161,17 22,15.0035035 22,12.5484957 L21.9942188,9.22857532 Z" id="Path" fill="#D98263"></path>
            <path d="M11.9971902,1 C6.4846812,1 2,4.69176347 2,9.23197673 L2.01443455,12.5494481 C2.01443455,15.0035035 4.43976883,17 7.42094331,17 L12,17 L12,1 C11.9990634,1 11.9981268,1 11.9971902,1 Z" id="Path" fill="#EB9B81"></path>
            <path d="M8,20 C5.7944127,20 4,21.1899789 4,22.6526316 L4,24 L12,24 L12,22.6526316 C12,21.1899789 10.2055873,20 8,20 Z" id="Path" fill="#EB9B81"></path>
            <path d="M6,23 L6,22.8857143 C6,21.8459429 6.67290909,21 7.5,21 C8.32709091,21 9,21.8459429 9,22.8857143 L9,23 L6,23 Z" id="Path" fill="#FFDFCF"></path>
            <path d="M16,20 C13.7944127,20 12,21.1899789 12,22.6526316 L12,24 L20,24 L20,22.6526316 C20,21.1899789 18.2055873,20 16,20 Z" id="Path" fill="#D98263"></path>
            <path d="M15,23 L15,22.8857143 C15,21.8459429 15.6729091,21 16.5,21 C17.3270909,21 18,21.8459429 18,22.8857143 L18,23 L15,23 Z" id="Path" fill="#FFCEBF"></path>
            <path d="M12.6221204,10 L12,13.8137989 L12.6221204,17 C15.0361246,17 17,15.4299331 17,13.5000466 C17,11.5701135 15.0361246,10 12.6221204,10 L12.6221204,10 Z" id="Path" fill="#FFCEBF"></path>
            <path d="M8,13.5000233 C8,15.4299227 9.79436214,17 12,17 L12,10 C9.79436214,10 8,11.570124 8,13.5000233 L8,13.5000233 Z" id="Path" fill="#FFDFCF"></path>
            <polygon id="Path" fill="#804231" points="11 12 13 12 13 14 11 14"></polygon>
            <polygon id="Path" fill="#9D5C4B" points="6 8 8 8 8 11 6 11"></polygon>
            <polygon id="Path" fill="#804231" points="16 8 18 8 18 11 16 11"></polygon>
        </g>
    </g>
</svg>
