<svg id="Capa_1" enable-background="new 0 0 512 512" height="512" viewBox="0 0 512 512" width="512" xmlns="http://www.w3.org/2000/svg"><path d="m384.805 337h-82.166l66.587 99.88c2.469 26.578 24.896 47.454 52.108 47.454 28.856 0 52.333-23.477 52.333-52.334v-6.139c-.001-48.998-39.863-88.861-88.862-88.861z" fill="#d98263"/><path d="m38.333 425.861v6.139c0 28.857 23.477 52.334 52.333 52.334 27.212 0 49.639-20.876 52.108-47.454l66.587-99.88h-82.167c-48.998 0-88.861 39.863-88.861 88.861z" fill="#eb9b81"/><path d="m399 431.703c0-33.525-7.925-67.094-22.917-97.078l-4.146-8.291h-115.937l-21.333 92.833 21.333 92.833h17l126-32z" fill="#bd6446"/><path d="m140.063 326.333-4.146 8.291c-14.992 29.985-22.917 63.554-22.917 97.079v48.297l126.667 32h16.333v-185.667z" fill="#c4715a"/><ellipse cx="128" cy="68.333" fill="#c4715a" rx="68.333" ry="68.333" transform="matrix(.004 -1 1 .004 59.134 196.047)"/><ellipse cx="128" cy="68.333" fill="#ffdfcf" rx="38.333" ry="38.333" transform="matrix(1 -.011 .011 1 -.726 1.377)"/><ellipse cx="384" cy="68.333" fill="#bd6446" rx="68.333" ry="68.334" transform="matrix(.016 -1 1 .016 309.596 451.203)"/><ellipse cx="384" cy="68.333" fill="#ffcebf" rx="38.334" ry="38.333" transform="matrix(.999 -.045 .045 .999 -2.68 17.3)"/><path d="m437.408 195.643c-.01-100.031-81.381-181.409-181.408-181.437l-10.667 199.126 10.667 153.668h83.376c54.111 0 98.133-44.022 98.133-98.154z" fill="#d98263"/><path d="m255.949 14.206c-100.057 0-181.458 81.402-181.458 181.512l.262 73.149c0 54.111 44.022 98.133 98.133 98.133h83.114v-352.794c-.017 0-.034 0-.051 0z" fill="#eb9b81"/><path d="m176 417c-34.738 0-63 28.262-63 63v32h126v-32c0-34.738-28.262-63-63-63z" fill="#eb9b81"/><path d="m143 482v-2c0-18.196 14.804-33 33-33s33 14.804 33 33v2z" fill="#ffdfcf"/><path d="m336 417c-34.738 0-63 28.262-63 63v32h126v-32c0-34.738-28.262-63-63-63z" fill="#d98263"/><path d="m303 482v-2c0-18.196 14.804-33 33-33s33 14.804 33 33v2z" fill="#ffcebf"/><path d="m256 216.872-10.667 81.794 10.667 68.334c41.391 0 75.064-33.673 75.064-75.063 0-41.391-33.673-75.065-75.064-75.065z" fill="#ffcebf"/><path d="m180.936 291.936c0 41.39 33.673 75.063 75.064 75.063v-150.127c-41.391 0-75.064 33.674-75.064 75.064z" fill="#ffdfcf"/><path d="m241 241.669h30v35.665h-30z" fill="#804231"/><path d="m155.666 160h30v53.333h-30z" fill="#9d5c4b"/><path d="m326.333 160h30v53.333h-30z" fill="#804231"/></svg>