<svg id="Capa_1" enable-background="new 0 0 512 512" height="512" viewBox="0 0 512 512" width="512" xmlns="http://www.w3.org/2000/svg"><path d="m346 167v75h-30v195l-120 16-150-16v-60c4.14 0 7.89-1.68 10.6-4.4 2.72-2.71 4.4-6.46 4.4-10.6v-120c0-8.28-6.72-15-15-15v-60l150-12z" fill="#76e2f8"/><path d="m346 167v75h-30v195l-120 16v-298z" fill="#4bb9ec"/><path d="m346 167h-300l30-90 120-21.46 120 21.46z" fill="#e6f5fa"/><path d="m346 167h-150v-111.46l120 21.46z" fill="#c8e1e6"/><path d="m316 437v45c0 16.569-13.431 30-30 30h-240v-75z" fill="#e6f5fa"/><path d="m316 437v45c0 16.569-13.431 30-30 30h-90v-75z" fill="#c8e1e6"/><path d="m46 227h195v150h-195z" fill="#e6f5fa"/><path d="m196 227h45v150h-45z" fill="#c8e1e6"/><path d="m76 0h240v77h-240z" fill="#76e2f8"/><path d="m196 0h120v77h-120z" fill="#4bb9ec"/><path d="m466 212v105c0 8.28-6.72 15-15 15h-150c-8.28 0-15-6.72-15-15v-105z" fill="#c8e1e6"/><path d="m466 212v105c0 8.28-6.72 15-15 15h-75v-120z" fill="#aac8d2"/><path d="m286 317h180v195h-180z" fill="#e6f5fa"/><path d="m376 317h90v195h-90z" fill="#c8e1e6"/></svg>