<svg id="Capa_1" enable-background="new 0 0 512 512" height="512" viewBox="0 0 512 512" width="512" xmlns="http://www.w3.org/2000/svg"><path d="m256 0c-140.96 0-256 115.049-256 256 0 140.96 115.049 256 256 256 140.96 0 256-115.049 256-256 0-140.96-115.049-256-256-256zm0 482c-124.617 0-226-101.383-226-226s101.383-226 226-226 226 101.383 226 226-101.383 226-226 226z"/><path d="m256 60c-107.653 0-196 88.367-196 196 0 93.218 64.995 143.095 68.778 148.435l42.369-42.369-21.213-21.213-20.71 20.709c-22.076-26.164-35.406-57.523-38.515-90.562h30.291v-30h-30.315c3.13-34.774 17.025-66.488 38.324-91.778l20.926 20.925 21.213-21.213-20.842-20.842c25.109-20.785 56.417-34.322 90.694-37.407v29.315h30v-29.315c34.277 3.085 65.585 16.622 90.695 37.407l-20.842 20.842 21.213 21.213 20.926-20.925c21.299 25.29 35.194 57.004 38.324 91.778h-30.316v29.99h30.291c-3.109 33.049-16.44 64.408-38.515 90.572l-20.71-20.709-21.213 21.213 42.371 42.367c3.768-5.318 68.776-55.249 68.776-148.433 0-107.653-88.368-196-196-196z"/><path d="m283.11 291.89c10.86-8.22 17.89-21.25 17.89-35.89 0-19.55-12.54-36.23-30-42.42v-63.58h-30v63.58c-17.46 6.19-30 22.87-30 42.42 0 14.64 7.03 27.67 17.89 35.89l-19.5 19.51 2.06 8.24c5.2 20.8 23.1 34.78 44.55 34.78s39.35-13.98 44.55-34.78l2.06-8.24zm-27.11 32.53c-2.15 0-7.98-.47-12.03-5.17l12.03-12.04 12.03 12.03c-4.05 4.71-9.88 5.18-12.03 5.18zm0-53.42c-8.28 0-15-6.72-15-15s6.72-15 15-15 15 6.72 15 15-6.72 15-15 15z"/><path d="m211 422h90v30h-90z"/></svg>