<svg id="Capa_1" enable-background="new 0 0 512 512" height="512" viewBox="0 0 512 512" width="512" xmlns="http://www.w3.org/2000/svg"><path d="m242.013 421h30v30h-30z"/><path d="m122.029 134.449c.436 61.012 10.121 121.295 28.811 179.357l-28.826 57.653v140.541h270v-140.541l-28.826-57.652c7.806-24.251 14.035-48.89 18.681-73.807h70.145v-180c-24.471 0-78.482 0-95.73 0l-30-60h-138.542l-30 60h-97.755zm179.984 347.551h-90v-46c0-24.935 20.607-46 45-46s45 21.065 45 46zm60 0h-30v-46c0-41.458-33.534-76-75-76-41.458 0-75 34.534-75 76v46h-30v-103.459l24.27-48.541h161.459l24.271 48.541zm60-392v120h-35.336c3.546-26.406 5.336-53.07 5.336-79.869v-40.131zm-215.73-60h101.459l15 30h-131.459zm155.73 60v40.131c0 57.741-8.719 114.831-25.922 169.869h-158.157c-17.203-55.036-25.921-112.127-25.921-169.869v-6.562l-27.974-33.569z"/><path d="m227.013 120h60v30h-60z"/><path d="m227.013 180h60v30h-60z"/><path d="m227.013 240h60v30h-60z"/></svg>