<svg id="Capa_1" enable-background="new 0 0 511.75 511.75" height="512" viewBox="0 0 511.75 511.75" width="512" xmlns="http://www.w3.org/2000/svg"><path d="m128.371 511.75h255.009c1.93-3.55 37.496-41.432 37.496-105 0-62.139-35.01-118.728-90-146.821v-49.179h30v30h30v-90h-30v30h-30v-30h-60v-32.58c17.459-6.192 30-22.865 30-42.42 0-13.157-6.316-22.937-6.423-23.193l-38.578-52.557c-.073.1 1.927-2.633-38.987 53.269-3.934 6.813-6.013 14.586-6.013 22.481 0 19.555 12.541 36.228 30 42.42v32.58h-60v30h-30v30h30v49.179c-54.99 28.093-90 84.682-90 146.821 0 64.292 35.406 101.156 37.496 105zm114.168-442.88 13.336-18.169 13.336 18.169c1.104 2.128 1.664 4.439 1.664 6.881 0 8.271-6.729 15-15 15s-15-6.729-15-15c0-2.442.56-4.754 1.664-6.881zm58.336 111.88v98.472l8.986 3.933c44.572 19.507 74.858 61.14 80.176 108.595h-20.078c-32.41 0-63.795-9.503-90.763-27.481-3.192-2.128-6.439-4.151-9.732-6.077.925-6.107 1.411-12.295 1.411-18.524v-158.918zm-90 98.473v-98.473h30s-.053 162.094-.132 163.672c-21.881-8.349-45.182-12.672-68.951-12.672h-28.047c26.664-39.739 62.523-49.786 67.13-52.527zm-82.228 82.527h43.145c21.648 0 42.831 4.262 62.553 12.435-8.29 21.014-24.09 38.605-45.178 49.149l13.416 26.833c25.888-12.944 46.685-34.68 58.349-61.975 33.323 21.661 68.163 33.549 109.026 33.549h20.1c-2.359 21.526-9.801 41.954-21.91 60.01h-224.545c-14.893-22.206-22.728-47.983-22.728-75 0-15.612 2.721-30.788 7.772-45.001z"/></svg>