<svg id="Capa_1" enable-background="new 0 0 512 512" height="512" viewBox="0 0 512 512" width="512" xmlns="http://www.w3.org/2000/svg"><g fill="#ffe375"><path d="m121 0h30v61h-30z"/><path d="m0 121h61v30h-61z"/><path d="m38.5 21.68h30v63.64h-30z" transform="matrix(.707 -.707 .707 .707 -22.16 53.5)"/></g><path d="m361 0h30v61h-30z" fill="#ffb725"/><path d="m451 121h61v30h-61z" fill="#ffb725"/><path d="m426.68 38.5h63.64v30h-63.64z" fill="#ffb725" transform="matrix(.707 -.707 .707 .707 96.46 339.876)"/><path d="m121 451h30v61h-30z" fill="#ffe375"/><path d="m0 361h61v30h-61z" fill="#ffe375"/><path d="m21.68 443.5h63.64v30h-63.64z" fill="#ffe375" transform="matrix(.707 -.707 .707 .707 -308.535 172.118)"/><path d="m361 451h30v61h-30z" fill="#ffb725"/><path d="m451 361h61v30h-61z" fill="#ffb725"/><path d="m443.5 426.68h30v63.64h-30z" fill="#ffb725" transform="matrix(.707 -.707 .707 .707 -189.917 458.5)"/><path d="m346 226-90 20-90-20 24-58.5 66-46.5 65 48.5z" fill="#a8ebfa"/><path d="m346 226-90 20v-125l65 48.5z" fill="#76e2f8"/><path d="m485.931 226 .598-.684-104.316-104.316h-126.213l90 105z" fill="#4bb9ec"/><path d="m256 121h-126.213l-104.316 104.316.598.684h139.931z" fill="#76e2f8"/><path d="m346 226-8.08 70.31-81.92 192.47-75.75-177.37-14.25-85.41z" fill="#76e2f8"/><path d="m346 226-8.08 70.31-81.92 192.47v-262.78z" fill="#4bb9ec"/><path d="m485.931 226h-139.931l-90 262.779z" fill="#0095ff"/><path d="m26.069 226 229.931 262.779-90-262.779z" fill="#4bb9ec"/></svg>