<svg id="Capa_1" enable-background="new 0 0 512 512" height="512" viewBox="0 0 512 512" width="512" xmlns="http://www.w3.org/2000/svg"><path d="m360.721 274.64 120.559-120.559-63.64-63.64-56.919 56.919v-147.36h-330v512h330zm-100.677 15.823 8.103-8.103 21.213 21.213-8.103 8.103-31.819 10.606zm50.529-8.103-21.213-21.213 85.853-85.853 21.213 21.213zm128.28-128.279-21.213 21.213-21.213-21.213 21.213-21.213zm-378.132 327.919v-452h270v147.361l-33.64 33.639h-206.36v30h176.361l-30 30h-146.361v30h134.189l-10 30h-124.189v30h137.434l69.308-23.103 33.258-33.258v177.361z"/><path d="m180.721 61h30v30h-30z"/><path d="m150.721 422h90v30h-90z"/><path d="m90.721 151h210v30h-210z"/></svg>