<?xml version="1.0" encoding="UTF-8"?>
<svg xmlns="http://www.w3.org/2000/svg" xmlns:xlink="http://www.w3.org/1999/xlink" width="0" height="0">
<symbol id="barometer" enable-background="new 0 0 512 512" height="512" viewBox="0 0 512 512" width="512" xmlns="http://www.w3.org/2000/svg"><path d="m256 0c-140.96 0-256 115.049-256 256 0 140.96 115.049 256 256 256 140.96 0 256-115.049 256-256 0-140.96-115.049-256-256-256zm0 482c-124.617 0-226-101.383-226-226s101.383-226 226-226 226 101.383 226 226-101.383 226-226 226z"/><path d="m256 60c-107.653 0-196 88.367-196 196 0 93.218 64.995 143.095 68.778 148.435l42.369-42.369-21.213-21.213-20.71 20.709c-22.076-26.164-35.406-57.523-38.515-90.562h30.291v-30h-30.315c3.13-34.774 17.025-66.488 38.324-91.778l20.926 20.925 21.213-21.213-20.842-20.842c25.109-20.785 56.417-34.322 90.694-37.407v29.315h30v-29.315c34.277 3.085 65.585 16.622 90.695 37.407l-20.842 20.842 21.213 21.213 20.926-20.925c21.299 25.29 35.194 57.004 38.324 91.778h-30.316v29.99h30.291c-3.109 33.049-16.44 64.408-38.515 90.572l-20.71-20.709-21.213 21.213 42.371 42.367c3.768-5.318 68.776-55.249 68.776-148.433 0-107.653-88.368-196-196-196z"/><path d="m283.11 291.89c10.86-8.22 17.89-21.25 17.89-35.89 0-19.55-12.54-36.23-30-42.42v-63.58h-30v63.58c-17.46 6.19-30 22.87-30 42.42 0 14.64 7.03 27.67 17.89 35.89l-19.5 19.51 2.06 8.24c5.2 20.8 23.1 34.78 44.55 34.78s39.35-13.98 44.55-34.78l2.06-8.24zm-27.11 32.53c-2.15 0-7.98-.47-12.03-5.17l12.03-12.04 12.03 12.03c-4.05 4.71-9.88 5.18-12.03 5.18zm0-53.42c-8.28 0-15-6.72-15-15s6.72-15 15-15 15 6.72 15 15-6.72 15-15 15z"/><path d="m211 422h90v30h-90z"/></symbol><symbol id="bear" enable-background="new 0 0 512 512" height="512" viewBox="0 0 512 512" width="512" xmlns="http://www.w3.org/2000/svg"><path d="m384.805 337h-82.166l66.587 99.88c2.469 26.578 24.896 47.454 52.108 47.454 28.856 0 52.333-23.477 52.333-52.334v-6.139c-.001-48.998-39.863-88.861-88.862-88.861z" fill="#d98263"/><path d="m38.333 425.861v6.139c0 28.857 23.477 52.334 52.333 52.334 27.212 0 49.639-20.876 52.108-47.454l66.587-99.88h-82.167c-48.998 0-88.861 39.863-88.861 88.861z" fill="#eb9b81"/><path d="m399 431.703c0-33.525-7.925-67.094-22.917-97.078l-4.146-8.291h-115.937l-21.333 92.833 21.333 92.833h17l126-32z" fill="#bd6446"/><path d="m140.063 326.333-4.146 8.291c-14.992 29.985-22.917 63.554-22.917 97.079v48.297l126.667 32h16.333v-185.667z" fill="#c4715a"/><ellipse cx="128" cy="68.333" fill="#c4715a" rx="68.333" ry="68.333" transform="matrix(.004 -1 1 .004 59.134 196.047)"/><ellipse cx="128" cy="68.333" fill="#ffdfcf" rx="38.333" ry="38.333" transform="matrix(1 -.011 .011 1 -.726 1.377)"/><ellipse cx="384" cy="68.333" fill="#bd6446" rx="68.333" ry="68.334" transform="matrix(.016 -1 1 .016 309.596 451.203)"/><ellipse cx="384" cy="68.333" fill="#ffcebf" rx="38.334" ry="38.333" transform="matrix(.999 -.045 .045 .999 -2.68 17.3)"/><path d="m437.408 195.643c-.01-100.031-81.381-181.409-181.408-181.437l-10.667 199.126 10.667 153.668h83.376c54.111 0 98.133-44.022 98.133-98.154z" fill="#d98263"/><path d="m255.949 14.206c-100.057 0-181.458 81.402-181.458 181.512l.262 73.149c0 54.111 44.022 98.133 98.133 98.133h83.114v-352.794c-.017 0-.034 0-.051 0z" fill="#eb9b81"/><path d="m176 417c-34.738 0-63 28.262-63 63v32h126v-32c0-34.738-28.262-63-63-63z" fill="#eb9b81"/><path d="m143 482v-2c0-18.196 14.804-33 33-33s33 14.804 33 33v2z" fill="#ffdfcf"/><path d="m336 417c-34.738 0-63 28.262-63 63v32h126v-32c0-34.738-28.262-63-63-63z" fill="#d98263"/><path d="m303 482v-2c0-18.196 14.804-33 33-33s33 14.804 33 33v2z" fill="#ffcebf"/><path d="m256 216.872-10.667 81.794 10.667 68.334c41.391 0 75.064-33.673 75.064-75.063 0-41.391-33.673-75.065-75.064-75.065z" fill="#ffcebf"/><path d="m180.936 291.936c0 41.39 33.673 75.063 75.064 75.063v-150.127c-41.391 0-75.064 33.674-75.064 75.064z" fill="#ffdfcf"/><path d="m241 241.669h30v35.665h-30z" fill="#804231"/><path d="m155.666 160h30v53.333h-30z" fill="#9d5c4b"/><path d="m326.333 160h30v53.333h-30z" fill="#804231"/></symbol><symbol id="blender" enable-background="new 0 0 512 512" height="512" viewBox="0 0 512 512" width="512" xmlns="http://www.w3.org/2000/svg"><path d="m242.013 421h30v30h-30z"/><path d="m122.029 134.449c.436 61.012 10.121 121.295 28.811 179.357l-28.826 57.653v140.541h270v-140.541l-28.826-57.652c7.806-24.251 14.035-48.89 18.681-73.807h70.145v-180c-24.471 0-78.482 0-95.73 0l-30-60h-138.542l-30 60h-97.755zm179.984 347.551h-90v-46c0-24.935 20.607-46 45-46s45 21.065 45 46zm60 0h-30v-46c0-41.458-33.534-76-75-76-41.458 0-75 34.534-75 76v46h-30v-103.459l24.27-48.541h161.459l24.271 48.541zm60-392v120h-35.336c3.546-26.406 5.336-53.07 5.336-79.869v-40.131zm-215.73-60h101.459l15 30h-131.459zm155.73 60v40.131c0 57.741-8.719 114.831-25.922 169.869h-158.157c-17.203-55.036-25.921-112.127-25.921-169.869v-6.562l-27.974-33.569z"/><path d="m227.013 120h60v30h-60z"/><path d="m227.013 180h60v30h-60z"/><path d="m227.013 240h60v30h-60z"/></symbol><symbol id="bunsen-burner" enable-background="new 0 0 511.75 511.75" height="512" viewBox="0 0 511.75 511.75" width="512" xmlns="http://www.w3.org/2000/svg"><path d="m128.371 511.75h255.009c1.93-3.55 37.496-41.432 37.496-105 0-62.139-35.01-118.728-90-146.821v-49.179h30v30h30v-90h-30v30h-30v-30h-60v-32.58c17.459-6.192 30-22.865 30-42.42 0-13.157-6.316-22.937-6.423-23.193l-38.578-52.557c-.073.1 1.927-2.633-38.987 53.269-3.934 6.813-6.013 14.586-6.013 22.481 0 19.555 12.541 36.228 30 42.42v32.58h-60v30h-30v30h30v49.179c-54.99 28.093-90 84.682-90 146.821 0 64.292 35.406 101.156 37.496 105zm114.168-442.88 13.336-18.169 13.336 18.169c1.104 2.128 1.664 4.439 1.664 6.881 0 8.271-6.729 15-15 15s-15-6.729-15-15c0-2.442.56-4.754 1.664-6.881zm58.336 111.88v98.472l8.986 3.933c44.572 19.507 74.858 61.14 80.176 108.595h-20.078c-32.41 0-63.795-9.503-90.763-27.481-3.192-2.128-6.439-4.151-9.732-6.077.925-6.107 1.411-12.295 1.411-18.524v-158.918zm-90 98.473v-98.473h30s-.053 162.094-.132 163.672c-21.881-8.349-45.182-12.672-68.951-12.672h-28.047c26.664-39.739 62.523-49.786 67.13-52.527zm-82.228 82.527h43.145c21.648 0 42.831 4.262 62.553 12.435-8.29 21.014-24.09 38.605-45.178 49.149l13.416 26.833c25.888-12.944 46.685-34.68 58.349-61.975 33.323 21.661 68.163 33.549 109.026 33.549h20.1c-2.359 21.526-9.801 41.954-21.91 60.01h-224.545c-14.893-22.206-22.728-47.983-22.728-75 0-15.612 2.721-30.788 7.772-45.001z"/></symbol><symbol id="diamond" enable-background="new 0 0 512 512" height="512" viewBox="0 0 512 512" width="512" xmlns="http://www.w3.org/2000/svg"><g fill="#ffe375"><path d="m121 0h30v61h-30z"/><path d="m0 121h61v30h-61z"/><path d="m38.5 21.68h30v63.64h-30z" transform="matrix(.707 -.707 .707 .707 -22.16 53.5)"/></g><path d="m361 0h30v61h-30z" fill="#ffb725"/><path d="m451 121h61v30h-61z" fill="#ffb725"/><path d="m426.68 38.5h63.64v30h-63.64z" fill="#ffb725" transform="matrix(.707 -.707 .707 .707 96.46 339.876)"/><path d="m121 451h30v61h-30z" fill="#ffe375"/><path d="m0 361h61v30h-61z" fill="#ffe375"/><path d="m21.68 443.5h63.64v30h-63.64z" fill="#ffe375" transform="matrix(.707 -.707 .707 .707 -308.535 172.118)"/><path d="m361 451h30v61h-30z" fill="#ffb725"/><path d="m451 361h61v30h-61z" fill="#ffb725"/><path d="m443.5 426.68h30v63.64h-30z" fill="#ffb725" transform="matrix(.707 -.707 .707 .707 -189.917 458.5)"/><path d="m346 226-90 20-90-20 24-58.5 66-46.5 65 48.5z" fill="#a8ebfa"/><path d="m346 226-90 20v-125l65 48.5z" fill="#76e2f8"/><path d="m485.931 226 .598-.684-104.316-104.316h-126.213l90 105z" fill="#4bb9ec"/><path d="m256 121h-126.213l-104.316 104.316.598.684h139.931z" fill="#76e2f8"/><path d="m346 226-8.08 70.31-81.92 192.47-75.75-177.37-14.25-85.41z" fill="#76e2f8"/><path d="m346 226-8.08 70.31-81.92 192.47v-262.78z" fill="#4bb9ec"/><path d="m485.931 226h-139.931l-90 262.779z" fill="#0095ff"/><path d="m26.069 226 229.931 262.779-90-262.779z" fill="#4bb9ec"/></symbol><symbol id="fill" enable-background="new 0 0 512 512" height="512" viewBox="0 0 512 512" width="512" xmlns="http://www.w3.org/2000/svg"><path d="m184.116 184.116v327.884h327.884v-327.884zm248.177 248.178h-168.471v-168.472h168.471z" fill="#1e608b"/><path d="m354 184.116v79.706h78.293v168.472h-78.293v79.706h158v-327.884z" fill="#284c6c"/><path d="m327.885 327.885h-327.885v-327.885h327.885z" fill="#fee582"/><path d="m327.885 327.885h-166.83v-327.885h166.83z" fill="#fed230"/><path d="m327.885 0h-22.28l-305.605 305.605v22.28h20.233l307.652-307.652z" fill="#ef4a50"/><path d="m305.605 0-144.55 144.55v42.512l166.83-166.829v-20.233z" fill="#d53136"/></symbol><symbol id="keyboard" enable-background="new 0 0 512 512" height="512" viewBox="0 0 512 512" width="512" xmlns="http://www.w3.org/2000/svg"><path d="m60 256h31v30h-31z"/><path d="m151 256h30v30h-30z"/><path d="m151 316h30v30h-30z"/><path d="m211 316h30v30h-30z"/><path d="m60 376h91v30h-91z"/><path d="m181 376h30v30h-30z"/><path d="m271 316h30v30h-30z"/><path d="m331 316h121v30h-121z"/><path d="m391 376h61v30h-61z"/><path d="m211 256h30v30h-30z"/><path d="m271 256h30v30h-30z"/><path d="m331 256h30v30h-30z"/><path d="m391 256h61v30h-61z"/><path d="m60 316h61v30h-61z"/><path d="m241 376h120v30h-120z"/><path d="m271 181c0-8.271 6.729-15 15-15h120c24.813 0 45-20.187 45-45s-20.187-45-45-45h-300c-8.271 0-15-6.729-15-15v-15h-30v15c0 24.813 20.187 45 45 45h300c8.271 0 15 6.729 15 15s-6.729 15-15 15h-120c-24.813 0-45 20.187-45 45v15h-241v270h512v-270h-241zm211 255h-452v-210h452z"/></symbol><symbol id="milk" enable-background="new 0 0 512 512" height="512" viewBox="0 0 512 512" width="512" xmlns="http://www.w3.org/2000/svg"><path d="m346 167v75h-30v195l-120 16-150-16v-60c4.14 0 7.89-1.68 10.6-4.4 2.72-2.71 4.4-6.46 4.4-10.6v-120c0-8.28-6.72-15-15-15v-60l150-12z" fill="#76e2f8"/><path d="m346 167v75h-30v195l-120 16v-298z" fill="#4bb9ec"/><path d="m346 167h-300l30-90 120-21.46 120 21.46z" fill="#e6f5fa"/><path d="m346 167h-150v-111.46l120 21.46z" fill="#c8e1e6"/><path d="m316 437v45c0 16.569-13.431 30-30 30h-240v-75z" fill="#e6f5fa"/><path d="m316 437v45c0 16.569-13.431 30-30 30h-90v-75z" fill="#c8e1e6"/><path d="m46 227h195v150h-195z" fill="#e6f5fa"/><path d="m196 227h45v150h-45z" fill="#c8e1e6"/><path d="m76 0h240v77h-240z" fill="#76e2f8"/><path d="m196 0h120v77h-120z" fill="#4bb9ec"/><path d="m466 212v105c0 8.28-6.72 15-15 15h-150c-8.28 0-15-6.72-15-15v-105z" fill="#c8e1e6"/><path d="m466 212v105c0 8.28-6.72 15-15 15h-75v-120z" fill="#aac8d2"/><path d="m286 317h180v195h-180z" fill="#e6f5fa"/><path d="m376 317h90v195h-90z" fill="#c8e1e6"/></symbol><symbol id="new-file" enable-background="new 0 0 512 512" height="512" viewBox="0 0 512 512" width="512" xmlns="http://www.w3.org/2000/svg"><path d="m389.833 107.495h-282.142v404.31h404.309v-282.142zm8.794 51.257 62.115 62.116h-62.115zm-260.91 323.026v-344.257h230.884v113.374h113.373v230.884h-344.257z"/><path d="m107.691.195h30.026v70.185h-30.026z"/><path d="m0 106.368h70.185v30.026h-70.185z"/></symbol><symbol id="write" enable-background="new 0 0 512 512" height="512" viewBox="0 0 512 512" width="512" xmlns="http://www.w3.org/2000/svg"><path d="m360.721 274.64 120.559-120.559-63.64-63.64-56.919 56.919v-147.36h-330v512h330zm-100.677 15.823 8.103-8.103 21.213 21.213-8.103 8.103-31.819 10.606zm50.529-8.103-21.213-21.213 85.853-85.853 21.213 21.213zm128.28-128.279-21.213 21.213-21.213-21.213 21.213-21.213zm-378.132 327.919v-452h270v147.361l-33.64 33.639h-206.36v30h176.361l-30 30h-146.361v30h134.189l-10 30h-124.189v30h137.434l69.308-23.103 33.258-33.258v177.361z"/><path d="m180.721 61h30v30h-30z"/><path d="m150.721 422h90v30h-90z"/><path d="m90.721 151h210v30h-210z"/></symbol></svg>