<?xml version="1.0" encoding="UTF-8"?>
<svg xmlns="http://www.w3.org/2000/svg" xmlns:xlink="http://www.w3.org/1999/xlink" width="0" height="0">
<symbol id="accessibility-24px" xmlns="http://www.w3.org/2000/svg" width="24" height="24" viewBox="0 0 24 24"><path d="M0 0h24v24H0z" fill="none"/><path d="M12 2c1.1 0 2 .9 2 2s-.9 2-2 2-2-.9-2-2 .9-2 2-2zm9 7h-6v13h-2v-6h-2v6H9V9H3V7h18v2z"/></symbol><symbol id="backup-24px" xmlns="http://www.w3.org/2000/svg" width="24" height="24" viewBox="0 0 24 24"><path d="M0 0h24v24H0z" fill="none"/><path d="M19.35 10.04C18.67 6.59 15.64 4 12 4 9.11 4 6.6 5.64 5.35 8.04 2.34 8.36 0 10.91 0 14c0 3.31 2.69 6 6 6h13c2.76 0 5-2.24 5-5 0-2.64-2.05-4.78-4.65-4.96zM14 13v4h-4v-4H7l5-5 5 5h-3z"/></symbol><symbol id="bear" enable-background="new 0 0 512 512" height="512" viewBox="0 0 512 512" width="512" xmlns="http://www.w3.org/2000/svg"><path d="m384.805 337h-82.166l66.587 99.88c2.469 26.578 24.896 47.454 52.108 47.454 28.856 0 52.333-23.477 52.333-52.334v-6.139c-.001-48.998-39.863-88.861-88.862-88.861z" fill="#d98263"/><path d="m38.333 425.861v6.139c0 28.857 23.477 52.334 52.333 52.334 27.212 0 49.639-20.876 52.108-47.454l66.587-99.88h-82.167c-48.998 0-88.861 39.863-88.861 88.861z" fill="#eb9b81"/><path d="m399 431.703c0-33.525-7.925-67.094-22.917-97.078l-4.146-8.291h-115.937l-21.333 92.833 21.333 92.833h17l126-32z" fill="#bd6446"/><path d="m140.063 326.333-4.146 8.291c-14.992 29.985-22.917 63.554-22.917 97.079v48.297l126.667 32h16.333v-185.667z" fill="#c4715a"/><ellipse cx="128" cy="68.333" fill="#c4715a" rx="68.333" ry="68.333" transform="matrix(.004 -1 1 .004 59.134 196.047)"/><ellipse cx="128" cy="68.333" fill="#ffdfcf" rx="38.333" ry="38.333" transform="matrix(1 -.011 .011 1 -.726 1.377)"/><ellipse cx="384" cy="68.333" fill="#bd6446" rx="68.333" ry="68.334" transform="matrix(.016 -1 1 .016 309.596 451.203)"/><ellipse cx="384" cy="68.333" fill="#ffcebf" rx="38.334" ry="38.333" transform="matrix(.999 -.045 .045 .999 -2.68 17.3)"/><path d="m437.408 195.643c-.01-100.031-81.381-181.409-181.408-181.437l-10.667 199.126 10.667 153.668h83.376c54.111 0 98.133-44.022 98.133-98.154z" fill="#d98263"/><path d="m255.949 14.206c-100.057 0-181.458 81.402-181.458 181.512l.262 73.149c0 54.111 44.022 98.133 98.133 98.133h83.114v-352.794c-.017 0-.034 0-.051 0z" fill="#eb9b81"/><path d="m176 417c-34.738 0-63 28.262-63 63v32h126v-32c0-34.738-28.262-63-63-63z" fill="#eb9b81"/><path d="m143 482v-2c0-18.196 14.804-33 33-33s33 14.804 33 33v2z" fill="#ffdfcf"/><path d="m336 417c-34.738 0-63 28.262-63 63v32h126v-32c0-34.738-28.262-63-63-63z" fill="#d98263"/><path d="m303 482v-2c0-18.196 14.804-33 33-33s33 14.804 33 33v2z" fill="#ffcebf"/><path d="m256 216.872-10.667 81.794 10.667 68.334c41.391 0 75.064-33.673 75.064-75.063 0-41.391-33.673-75.065-75.064-75.065z" fill="#ffcebf"/><path d="m180.936 291.936c0 41.39 33.673 75.063 75.064 75.063v-150.127c-41.391 0-75.064 33.674-75.064 75.064z" fill="#ffdfcf"/><path d="m241 241.669h30v35.665h-30z" fill="#804231"/><path d="m155.666 160h30v53.333h-30z" fill="#9d5c4b"/><path d="m326.333 160h30v53.333h-30z" fill="#804231"/></symbol><symbol id="build-24px" xmlns="http://www.w3.org/2000/svg" width="24" height="24" viewBox="0 0 24 24"><path clip-rule="evenodd" fill="none" d="M0 0h24v24H0z"/><path d="M22.7 19l-9.1-9.1c.9-2.3.4-5-1.5-6.9-2-2-5-2.4-7.4-1.3L9 6 6 9 1.6 4.7C.4 7.1.9 10.1 2.9 12.1c1.9 1.9 4.6 2.4 6.9 1.5l9.1 9.1c.4.4 1 .4 1.4 0l2.3-2.3c.5-.4.5-1.1.1-1.4z"/></symbol><symbol id="chart-24px" xmlns="http://www.w3.org/2000/svg" width="24" height="24" viewBox="0 0 24 24"><path fill="none" d="M0 0h24v24H0V0z"/><path d="M11 2v20c-5.07-.5-9-4.79-9-10s3.93-9.5 9-10zm2.03 0v8.99H22c-.47-4.74-4.24-8.52-8.97-8.99zm0 11.01V22c4.74-.47 8.5-4.25 8.97-8.99h-8.97z"/></symbol><symbol id="explore-24px" xmlns="http://www.w3.org/2000/svg" width="24" height="24" viewBox="0 0 24 24"><path d="M12 10.9c-.61 0-1.1.49-1.1 1.1s.49 1.1 1.1 1.1c.61 0 1.1-.49 1.1-1.1s-.49-1.1-1.1-1.1zM12 2C6.48 2 2 6.48 2 12s4.48 10 10 10 10-4.48 10-10S17.52 2 12 2zm2.19 12.19L6 18l3.81-8.19L18 6l-3.81 8.19z"/><path d="M0 0h24v24H0z" fill="none"/></symbol><symbol id="language-24px" xmlns="http://www.w3.org/2000/svg" width="24" height="24" viewBox="0 0 24 24"><path d="M0 0h24v24H0z" fill="none"/><path d="M11.99 2C6.47 2 2 6.48 2 12s4.47 10 9.99 10C17.52 22 22 17.52 22 12S17.52 2 11.99 2zm6.93 6h-2.95c-.32-1.25-.78-2.45-1.38-3.56 1.84.63 3.37 1.91 4.33 3.56zM12 4.04c.83 1.2 1.48 2.53 1.91 3.96h-3.82c.43-1.43 1.08-2.76 1.91-3.96zM4.26 14C4.1 13.36 4 12.69 4 12s.1-1.36.26-2h3.38c-.08.66-.14 1.32-.14 2 0 .68.06 1.34.14 2H4.26zm.82 2h2.95c.32 1.25.78 2.45 1.38 3.56-1.84-.63-3.37-1.9-4.33-3.56zm2.95-8H5.08c.96-1.66 2.49-2.93 4.33-3.56C8.81 5.55 8.35 6.75 8.03 8zM12 19.96c-.83-1.2-1.48-2.53-1.91-3.96h3.82c-.43 1.43-1.08 2.76-1.91 3.96zM14.34 14H9.66c-.09-.66-.16-1.32-.16-2 0-.68.07-1.35.16-2h4.68c.09.65.16 1.32.16 2 0 .68-.07 1.34-.16 2zm.25 5.56c.6-1.11 1.06-2.31 1.38-3.56h2.95c-.96 1.65-2.49 2.93-4.33 3.56zM16.36 14c.08-.66.14-1.32.14-2 0-.68-.06-1.34-.14-2h3.38c.16.64.26 1.31.26 2s-.1 1.36-.26 2h-3.38z"/></symbol><symbol id="milk" enable-background="new 0 0 512 512" height="512" viewBox="0 0 512 512" width="512" xmlns="http://www.w3.org/2000/svg"><path d="m346 167v75h-30v195l-120 16-150-16v-60c4.14 0 7.89-1.68 10.6-4.4 2.72-2.71 4.4-6.46 4.4-10.6v-120c0-8.28-6.72-15-15-15v-60l150-12z" fill="#76e2f8"/><path d="m346 167v75h-30v195l-120 16v-298z" fill="#4bb9ec"/><path d="m346 167h-300l30-90 120-21.46 120 21.46z" fill="#e6f5fa"/><path d="m346 167h-150v-111.46l120 21.46z" fill="#c8e1e6"/><path d="m316 437v45c0 16.569-13.431 30-30 30h-240v-75z" fill="#e6f5fa"/><path d="m316 437v45c0 16.569-13.431 30-30 30h-90v-75z" fill="#c8e1e6"/><path d="m46 227h195v150h-195z" fill="#e6f5fa"/><path d="m196 227h45v150h-45z" fill="#c8e1e6"/><path d="m76 0h240v77h-240z" fill="#76e2f8"/><path d="m196 0h120v77h-120z" fill="#4bb9ec"/><path d="m466 212v105c0 8.28-6.72 15-15 15h-150c-8.28 0-15-6.72-15-15v-105z" fill="#c8e1e6"/><path d="m466 212v105c0 8.28-6.72 15-15 15h-75v-120z" fill="#aac8d2"/><path d="m286 317h180v195h-180z" fill="#e6f5fa"/><path d="m376 317h90v195h-90z" fill="#c8e1e6"/></symbol><symbol id="print-24px" xmlns="http://www.w3.org/2000/svg" width="24" height="24" viewBox="0 0 24 24"><path d="M19 8H5c-1.66 0-3 1.34-3 3v6h4v4h12v-4h4v-6c0-1.66-1.34-3-3-3zm-3 11H8v-5h8v5zm3-7c-.55 0-1-.45-1-1s.45-1 1-1 1 .45 1 1-.45 1-1 1zm-1-9H6v4h12V3z"/><path d="M0 0h24v24H0z" fill="none"/></symbol></svg>