<?xml version="1.0" encoding="UTF-8"?>
<svg xmlns="http://www.w3.org/2000/svg" xmlns:xlink="http://www.w3.org/1999/xlink" width="0" height="0">
<symbol id="accessibility-24px" width="24" height="24" viewBox="0 0 24 24"><path d="M0 0h24v24H0z" fill="none"/><path d="M12 2c1.1 0 2 .9 2 2s-.9 2-2 2-2-.9-2-2 .9-2 2-2zm9 7h-6v13h-2v-6h-2v6H9V9H3V7h18v2z"/></symbol>

<symbol id="backup-24px" width="24" height="24" viewBox="0 0 24 24"><path d="M0 0h24v24H0z" fill="none"/><path d="M19.35 10.04C18.67 6.59 15.64 4 12 4 9.11 4 6.6 5.64 5.35 8.04 2.34 8.36 0 10.91 0 14c0 3.31 2.69 6 6 6h13c2.76 0 5-2.24 5-5 0-2.64-2.05-4.78-4.65-4.96zM14 13v4h-4v-4H7l5-5 5 5h-3z"/></symbol>

<symbol id="bear" width="24px" height="24px" viewBox="0 0 24 24">
  <path d="M18.8042426,16 L14,16 L17.8933391,20.7454084 C18.0377014,22.0081583 19.3490072,23 20.9400917,23 C22.6273008,23 24,21.884582 24,20.5135542 L24,20.2218836 C24,17.8939349 21.6692121,16 18.8042426,16 L18.8042426,16 Z" fill="#D98263"></path>
  <path d="M0,20.2218836 L0,20.5135542 C0,21.884582 1.37269921,23 3.05990832,23 C4.65099282,23 5.96229857,22.0081583 6.1066609,20.7454084 L10,16 L5.19569895,16 C2.33078794,16 0,17.8939349 0,20.2218836 Z" id="Path" fill="#EB9B81"></path>
  <path d="M20,20.1076718 C20,18.4825762 19.5659728,16.8553478 18.7449082,15.4018991 L18.5178449,15 L12.1683411,15 L11,19.5 L12.1683411,24 L13.0993775,24 L20,22.4488275 L20,20.1076718 Z" id="Path" fill="#BD6446"></path>
  <path d="M5.51401399,15 L5.28206993,15.4018969 C4.44335664,16.8553863 4,18.482606 4,20.1076928 L4,22.4488358 L11.0862657,24 L12,24 L12,15 L5.51401399,15 Z" id="Path" fill="#C4715A"></path>
  <ellipse id="Oval" fill="#C4715A" transform="translate(4.952972, 3.308053) rotate(-89.770818) translate(-4.952972, -3.308053) " cx="4.95297248" cy="3.30805312" rx="3.21459903" ry="3.76147153"></ellipse>
  <ellipse id="Oval" transform="translate(4.955541, 3.307191) rotate(-0.630228) translate(-4.955541, -3.307191) " cx="4.95554108" cy="3.30719073" rx="2.11016669" ry="1.80343444"></ellipse>
  <ellipse id="Oval" fill="#BD6446" transform="translate(19.049890, 3.306924) rotate(-89.083346) translate(-19.049890, -3.306924) " cx="19.0498899" cy="3.30692391" rx="3.21512739" ry="3.76185644"></ellipse>
  <ellipse id="Oval" transform="translate(19.046476, 3.306375) rotate(-2.579148) translate(-19.046476, -3.306375) " cx="19.0464762" cy="3.30637534" rx="2.10958066" ry="1.80398353"></ellipse>
  <path d="M21.9942188,9.22857532 C21.9936464,4.69194487 17.3360357,1.00126986 11.6105705,1 L11,10.0308112 L11.6105705,17 L16.3829458,17 C19.4802161,17 22,15.0035035 22,12.5484957 L21.9942188,9.22857532 Z" id="Path" fill="#D98263"></path>
  <path d="M11.9971902,1 C6.4846812,1 2,4.69176347 2,9.23197673 L2.01443455,12.5494481 C2.01443455,15.0035035 4.43976883,17 7.42094331,17 L12,17 L12,1 C11.9990634,1 11.9981268,1 11.9971902,1 Z" id="Path" fill="#EB9B81"></path>
  <path d="M8,20 C5.7944127,20 4,21.1899789 4,22.6526316 L4,24 L12,24 L12,22.6526316 C12,21.1899789 10.2055873,20 8,20 Z" id="Path" fill="#EB9B81"></path>
  <path d="M6,23 L6,22.8857143 C6,21.8459429 6.67290909,21 7.5,21 C8.32709091,21 9,21.8459429 9,22.8857143 L9,23 L6,23 Z" id="Path" fill="#FFDFCF"></path>
  <path d="M16,20 C13.7944127,20 12,21.1899789 12,22.6526316 L12,24 L20,24 L20,22.6526316 C20,21.1899789 18.2055873,20 16,20 Z" id="Path" fill="#D98263"></path>
  <path d="M15,23 L15,22.8857143 C15,21.8459429 15.6729091,21 16.5,21 C17.3270909,21 18,21.8459429 18,22.8857143 L18,23 L15,23 Z" id="Path" fill="#FFCEBF"></path>
  <path d="M12.6221204,10 L12,13.8137989 L12.6221204,17 C15.0361246,17 17,15.4299331 17,13.5000466 C17,11.5701135 15.0361246,10 12.6221204,10 L12.6221204,10 Z" id="Path" fill="#FFCEBF"></path>
  <path d="M8,13.5000233 C8,15.4299227 9.79436214,17 12,17 L12,10 C9.79436214,10 8,11.570124 8,13.5000233 L8,13.5000233 Z" id="Path" fill="#FFDFCF"></path>
  <polygon id="Path" fill="#804231" points="11 12 13 12 13 14 11 14"></polygon>
  <polygon id="Path" fill="#9D5C4B" points="6 8 8 8 8 11 6 11"></polygon>
  <polygon id="Path" fill="#9D5C4B" points="16 8 18 8 18 11 16 11"></polygon>
</symbol>

<symbol id="build-24px" width="24" height="24" viewBox="0 0 24 24"><path clip-rule="evenodd" fill="none" d="M0 0h24v24H0z"/><path d="M22.7 19l-9.1-9.1c.9-2.3.4-5-1.5-6.9-2-2-5-2.4-7.4-1.3L9 6 6 9 1.6 4.7C.4 7.1.9 10.1 2.9 12.1c1.9 1.9 4.6 2.4 6.9 1.5l9.1 9.1c.4.4 1 .4 1.4 0l2.3-2.3c.5-.4.5-1.1.1-1.4z"/></symbol>
<symbol id="chart-24px" width="24" height="24" viewBox="0 0 24 24"><path fill="none" d="M0 0h24v24H0V0z"/><path d="M11 2v20c-5.07-.5-9-4.79-9-10s3.93-9.5 9-10zm2.03 0v8.99H22c-.47-4.74-4.24-8.52-8.97-8.99zm0 11.01V22c4.74-.47 8.5-4.25 8.97-8.99h-8.97z"/></symbol>
<symbol id="explore-24px" width="24" height="24" viewBox="0 0 24 24"><path d="M12 10.9c-.61 0-1.1.49-1.1 1.1s.49 1.1 1.1 1.1c.61 0 1.1-.49 1.1-1.1s-.49-1.1-1.1-1.1zM12 2C6.48 2 2 6.48 2 12s4.48 10 10 10 10-4.48 10-10S17.52 2 12 2zm2.19 12.19L6 18l3.81-8.19L18 6l-3.81 8.19z"/><path d="M0 0h24v24H0z" fill="none"/></symbol>
<symbol id="language-24px" width="24" height="24" viewBox="0 0 24 24"><path d="M0 0h24v24H0z" fill="none"/><path d="M11.99 2C6.47 2 2 6.48 2 12s4.47 10 9.99 10C17.52 22 22 17.52 22 12S17.52 2 11.99 2zm6.93 6h-2.95c-.32-1.25-.78-2.45-1.38-3.56 1.84.63 3.37 1.91 4.33 3.56zM12 4.04c.83 1.2 1.48 2.53 1.91 3.96h-3.82c.43-1.43 1.08-2.76 1.91-3.96zM4.26 14C4.1 13.36 4 12.69 4 12s.1-1.36.26-2h3.38c-.08.66-.14 1.32-.14 2 0 .68.06 1.34.14 2H4.26zm.82 2h2.95c.32 1.25.78 2.45 1.38 3.56-1.84-.63-3.37-1.9-4.33-3.56zm2.95-8H5.08c.96-1.66 2.49-2.93 4.33-3.56C8.81 5.55 8.35 6.75 8.03 8zM12 19.96c-.83-1.2-1.48-2.53-1.91-3.96h3.82c-.43 1.43-1.08 2.76-1.91 3.96zM14.34 14H9.66c-.09-.66-.16-1.32-.16-2 0-.68.07-1.35.16-2h4.68c.09.65.16 1.32.16 2 0 .68-.07 1.34-.16 2zm.25 5.56c.6-1.11 1.06-2.31 1.38-3.56h2.95c-.96 1.65-2.49 2.93-4.33 3.56zM16.36 14c.08-.66.14-1.32.14-2 0-.68-.06-1.34-.14-2h3.38c.16.64.26 1.31.26 2s-.1 1.36-.26 2h-3.38z"/></symbol>

<symbol id="milk" width="24px" height="24px" viewBox="0 0 24 24">
    <g stroke="none" stroke-width="1" fill="none" fill-rule="evenodd">
        <g id="milk" fill-rule="nonzero">
            <path d="M17,7.56375839 L17,11.0872483 L15.3,11.0872483 L15.3,20.2483221 L8.5,21 L0,20.2483221 L0,17.4295302 C0.2346,17.4295302 0.4471,17.350604 0.600666667,17.2228188 C0.7548,17.0955034 0.85,16.9193289 0.85,16.7248322 L0.85,11.0872483 C0.85,10.698255 0.4692,10.3825503 0,10.3825503 L0,7.56375839 L8.5,7 L17,7.56375839 Z" id="Path" fill="#76E2F8"></path>
            <polygon id="Path" fill="#4BB9EC" points="17 7.56375839 17 11.0872483 15.2 11.0872483 15.2 20.2483221 8 21 8 7"></polygon>
            <polygon id="Path" fill="#E6F5FA" points="17 7 0 7 1.7 2.96267719 8.5 2 15.3 2.96267719"></polygon>
            <polygon id="Path" fill="#C8E1E6" points="17 7 8 7 8 2 15.2 2.96267719"></polygon>
            <path d="M15,21 L15,22.8 C15,23.46276 14.2538333,24 13.3333333,24 L0,24 L0,21 L15,21 Z" id="Path" fill="#E6F5FA"></path>
            <path d="M15,21 L15,22.8 C15,23.46276 14.216525,24 13.25,24 L8,24 L8,21 L15,21 Z" id="Path" fill="#C8E1E6"></path>
            <polygon id="Path" fill="#E6F5FA" points="0 11 11 11 11 18 0 18"></polygon>
            <polygon id="Path" fill="#C8E1E6" points="8 11 11 11 11 18 8 18"></polygon>
            <polygon id="Path" fill="#76E2F8" points="2 0 16 0 16 3 2 3"></polygon>
            <polygon id="Path" fill="#4BB9EC" points="8 0 15 0 15 3 8 3"></polygon>
            <path d="M24,11 L24,15.375 C24,15.72 23.6266667,16 23.1666667,16 L14.8333333,16 C14.3733333,16 14,15.72 14,15.375 L14,11 L24,11 Z" id="Path" fill="#C8E1E6"></path>
            <path d="M24,11 L24,15.375 C24,15.72 23.6266667,16 23.1666667,16 L19,16 L19,11 L24,11 Z" id="Path" fill="#AAC8D2"></path>
            <polygon id="Path" fill="#E6F5FA" points="14 15 24 15 24 24 14 24"></polygon>
            <polygon id="Path" fill="#C8E1E6" points="19 15 24 15 24 24 19 24"></polygon>
        </g>
    </g>
</symbol>

<symbol id="print-24px" width="24" height="24" viewBox="0 0 24 24"><path d="M19 8H5c-1.66 0-3 1.34-3 3v6h4v4h12v-4h4v-6c0-1.66-1.34-3-3-3zm-3 11H8v-5h8v5zm3-7c-.55 0-1-.45-1-1s.45-1 1-1 1 .45 1 1-.45 1-1 1zm-1-9H6v4h12V3z"/><path d="M0 0h24v24H0z" fill="none"/></symbol>
<symbol id="star_100x100" width="100" height="100">
  <g>
    <path d="m3.5025,39.18082l36.669,0l11.33101,-31.70326l11.33101,31.70326l36.669,0l-29.66579,19.59347l11.33159,31.70326l-29.6658,-19.594l-29.66579,19.594l11.33159,-31.70326l-29.66579,-19.59347l-0.00003,0z"/>
  </g>
</symbol>

<symbol id="star_100x100_viewbox" width="100" height="100" viewBox="0 0 100 100">
  <g>
    <path d="m3.5025,39.18082l36.669,0l11.33101,-31.70326l11.33101,31.70326l36.669,0l-29.66579,19.59347l11.33159,31.70326l-29.6658,-19.594l-29.66579,19.594l11.33159,-31.70326l-29.66579,-19.59347l-0.00003,0z"/>
  </g>
</symbol>

</svg>
